<svg width="944" height="364" viewBox="0 0 944 364" xmlns="http://www.w3.org/2000/svg" version="1.1">
  <path fill="#101820" class="svg_logo_path" d="M96.94 318.6l-12.87-81.86h-9.51l-25.74 58.67-26.44-58.67h-9.39L0 318.6h14.03l7.07-49.05 22.03 49.05h8.81l21.57-49.51 6.84 49.51zm94.96 0l-37.56-81.86h-5.68L109.7 318.6h14.49l8.12-18.09h33.86l8.12 18.09zm-30.72-28.87h-24l11.83-26.55zm47.42-52.99v81.86h16.58v-36.18c3.25.58 6.26.93 9.62.93l20.87 35.25h18.55l-22.84-38.84c8.58-3.94 14.15-11.25 14.15-21.22 0-3.83-1.04-8.35-3.02-11.6-5.45-8.93-14.38-10.2-24-10.2zm16.58 11.25h6.84c8.81 0 16.58 3.01 16.58 13.1 0 8-6.15 15.65-21.91 15.65h-1.51zm118.73 70.61v-11.48h-36.87v-70.38h-16.7v81.86zm73.4 0v-11.13h-39.42v-25.63h30.38v-11.25h-30.38v-22.73h34.67v-11.13h-51.25v81.86h56zM605.93 255.17c-1.74-16.7-15.31-21.1-27.6-21.1-27.25 0-31.54 17.51-31.54 25.74 0 14.26 10.78 21.33 26.44 23.89 7.65 1.28 17.16 3.59 17.16 13.45 0 6.38-5.22 13.91-17.39 13.91-4.06 0-18.2-.7-24.7-16.12l-4.52 1.62c1.04 12.18 9.28 24.47 30.61 24.47 23.89 0 33.05-14.38 33.05-27.13 0-11.83-7.07-20.87-28.52-24.93-10.9-2.09-15.65-5.57-15.65-12.29 0-10.44 11.36-12.75 17.86-12.75 2.9 0 15.89.46 20.06 12.41zm17.74-18.43v81.86h16.58v-36.29c3.13.35 6.14.81 9.39.81 14.84 0 31.77-7.77 31.77-24.81 0-11.25-7.66-21.57-26.67-21.57zm16.58 11.13h7.54c7.42 0 16.35 3.48 16.35 13.8 0 12.06-13.34 15.19-21.34 15.19h-2.55zM766.37 277.41c0-25.06-14.67-40.82-38.2-40.82-24.95 0-37.87 17.62-37.87 41.26 0 23.53 12.91 40.71 37.64 40.71 30.99 0 38.43-25.17 38.43-41.15zm-16.75 0c0 14.12-3.93 30.86-21.23 30.86-17.51 0-21.13-17.73-21.13-31.85 0-13.24 4.92-29.55 20.9-29.55 16.87 0 21.46 16.53 21.46 30.54zM855.77 277.41c0-25.06-14.67-40.82-38.2-40.82-24.95 0-37.87 17.62-37.87 41.26 0 23.53 12.92 40.71 37.65 40.71 30.98 0 38.42-25.17 38.42-41.15zm-16.74 0c0 14.12-3.94 30.86-21.23 30.86-17.51 0-21.12-17.73-21.12-31.85 0-13.24 4.92-29.55 20.9-29.55 16.85 0 21.45 16.53 21.45 30.54zM942.67 319.64v-82.9h-13.61v49.67l-44.22-49.67h-14.92v81.86h13.71v-59.98l54.67 61.02z M500.28 236.75l-28.63 59.94-23.41-59.94h-17.86l32.04 79.84s.02 1.05-8.48 13.83c-8.05 12.1-19 22.58-34.3 24.06-14.35 1.39-29.66-3.12-40.77-11.25l-2.74 3.45 1.49 1.51c8.53 8.17 25.64 15.5 40.42 15.5 11.05 0 22-3.39 31.18-9.53 9.25-6.18 15.77-15.04 21.52-24.42 1.74-2.83 3.37-5.73 5.01-8.63 8.91-15.81 40.83-83.62 41.17-84.36z M479.4 165.53l10.14 3.74c-1.29 5.77-3.28 10.95-5.9 15.42l-16.69-20.63c8.43-3.43 13.25-8.58 13.25-14.17 0-7.26-6.59-12.73-15.33-12.73-8.41 0-17.12 5.26-17.12 14.07 0 5.85 2.29 10.98 7.89 17.6-9.72 5.01-14.26 10.27-14.26 16.54 0 10.13 7.89 17.21 19.18 17.21 4.24 0 10.54-1.23 16.64-7.05l5.29 6.16h16.52v-1.7l-2.09-.5-12.04-13.17c2.73-4.16 4.99-9.88 6.72-17.01l9.66-3.79v-1.65h-21.87v1.66zm-20.07-17.7c0-4.05 1.03-8.87 5.92-8.87 5.11 0 6.18 5.12 6.18 9.41 0 6.42-1.83 11.09-5.58 14.25-3.48-4.23-6.52-8.58-6.52-14.79zm-6.1 35.04c0-4.96 1.36-9.7 3.58-12.56l19.16 23.66c-4.35 2.91-9.55 3.23-11.63 3.23-5.53.01-11.11-4.42-11.11-14.33zM1.75 168.07h403.44v4H1.75zM537.48 168.07h406.48v4H537.48z M113.09 50.21c0-19.16-13.96-20.65-18.23-20.65-9.62 0-16.78 4.02-23.9 13.44h-.43c-2.14-8.42-8.59-13.44-17.32-13.44-10.51 0-16.74 4.83-22.81 12.09h-.61V29.56h-1.87L2.59 30.93v2.32h8.06V96.1l-9.4.67v2.31h37.81v-2.31l-9.27-.67V45.71c5.99-6.51 9.22-9.23 13.61-9.23 6.08 0 8.9 3.77 8.9 11.86v47.78l-6.72.67v2.3h35.13v-2.31l-9.27-.67V46.36c5.32-7.1 9.14-9.88 13.61-9.88 6.08 0 8.9 3.77 8.9 11.86v47.78l-6.72.67v2.3h35.13v-2.31l-9.27-.67zM180.28 49c0-12.36-8.9-19.44-24.41-19.44-15.1 0-28.85 8.37-28.85 17.56 0 4.8 3.82 8.56 8.7 8.56 5.53 0 9.1-3.41 9.1-8.7 0-2.05-.82-3.95-2.31-5.35-1.26-1.19-3.59-2.53-7.5-2.43v-.6c3.43-3.07 9.79-5.63 14.01-5.63 8.5 0 12.13 3.67 12.13 12.26v16.7l-18.09 5.95c-9.27 3.31-18.74 7.98-18.74 17.53 0 8.84 6.78 15.01 16.49 15.01 7.86 0 12.62-2.38 19.64-7.39h.68v7.39H163l26.54-1.37v-2.32h-9.27V49zm-19.14 15.36V90.2c-2.55 1.23-5.07 1.83-7.7 1.83-6.06 0-9.98-4.6-9.98-11.73 0-7.89 3.78-10.86 9.88-13.1zM240.37 29.56c-7.43 0-14.09 6.36-19.27 18.41h-.51V29.56h-1.87l-25.33 1.37v2.32h8.06V96.1l-9.4.67v2.31h37.81v-2.31l-9.27-.67V55.95c3.44-9.02 6.68-14.89 9.63-17.46h.7c.62 6.73 5.57 9.81 10 9.81 4.45 0 9.23-3.02 9.23-9.64-.01-5.91-5.04-9.1-9.78-9.1zM280.78 14.78h-2.04l-16.81 16.14-9.29.69v2.31h9V83.8c0 11.03 5.28 16.62 15.68 16.62 6.92 0 14.78-1.82 20.51-4.76l.27-.14v-2.41l-.7.3c-3.87 1.66-6.13 2.24-8.67 2.24-5.17 0-7.96-2.19-7.96-13.74v-48h17.33v-3.02h-17.33V14.78zM374.83 50.21c0-19.16-13.96-20.65-18.23-20.65-9.39 0-16.62 3.62-24.14 12.09h-.62V0h-1.87l-25.33 1.37v2.32h8.06V96.1l-9.4.67v2.31h37.81v-2.31l-9.27-.67V45.71c6.36-6.9 10.11-9.23 14.82-9.23 6 0 9.04 3.99 9.04 11.86v47.78l-6.72.67v2.3h35.13v-2.31l-9.27-.67v-45.9zM451.28 96.74h-9.27V49.01c0-12.36-8.9-19.44-24.42-19.44-15.1 0-28.85 8.37-28.85 17.56 0 4.8 3.82 8.56 8.7 8.56 5.53 0 9.1-3.41 9.1-8.7 0-2.05-.82-3.95-2.31-5.35-1.26-1.19-3.59-2.54-7.5-2.43v-.6c3.43-3.07 9.79-5.63 14.01-5.63 8.5 0 12.13 3.67 12.13 12.26v16.7l-18.07 5.94c-9.27 3.31-18.74 7.98-18.74 17.53 0 8.84 6.78 15.01 16.49 15.01 7.86 0 12.62-2.38 19.64-7.39h.68v7.39h1.87l26.54-1.37zM405.2 80.31c0-7.89 3.78-10.86 9.88-13.1l7.79-2.84v25.84c-2.55 1.23-5.07 1.83-7.7 1.83-6.06 0-9.97-4.61-9.97-11.73zM513.84 54.72c-5.76-2.28-11.64-5.61-11.64-13.1 0-5.28 4.48-9.58 9.98-9.58 3.65 0 6.74 1.45 9.73 4.56 3.15 3.02 6.1 7.84 9.02 14.75l.13.31h2.17V29.57h-2.28l-.76 5.72c-6.51-3.85-12.8-5.72-19.22-5.72-15.32 0-25.22 7.84-25.22 19.98 0 11.54 6.76 16.84 18.44 22.09 10.55 4.56 14.48 8.55 14.48 14.72 0 5.76-4.03 11.59-11.73 11.59-3.8 0-7.06-1.61-10.25-5.08-2.68-2.92-5.34-7.45-8.38-14.24l-.13-.3h-2.17v22.09h2.28l.76-5.99c6.84 4.03 13.58 5.99 20.56 5.99 15.72 0 26.7-8.88 26.7-21.59.02-12-7.23-17.34-22.47-24.11zM569.65 14.78h-2.04L550.8 30.92l-9.29.69v2.31h9V83.8c0 11.03 5.28 16.62 15.68 16.62 6.92 0 14.78-1.82 20.52-4.76l.27-.14v-2.41l-.7.3c-3.87 1.66-6.13 2.24-8.67 2.24-5.17 0-7.96-2.19-7.96-13.74v-48h17.33v-3.02h-17.33zM650.13 76.71c-2.94 5.35-10.47 10.76-19.18 10.76-14.59 0-21.63-13.65-22.19-27.35h42.23l.07-.42c.37-2.19.54-4.46.54-6.93 0-21.53-20.23-23.21-26.43-23.21-17.54 0-35.3 12.31-35.3 35.83 0 9.39 3.13 18.06 8.83 24.4 6.24 6.95 15.02 10.63 25.4 10.63 15.84 0 25.62-11.73 28.3-23.36l.14-.61h-2.27zm-41.08-18.95c.93-17.16 6.13-25.86 15.46-25.86 2.28 0 9.71 1.05 9.71 14.55 0 3.23-.41 6.72-1.25 10.66zM739.96 33.12l11.17 3.32-13.59 45.78h-.6l-14.49-48.35 9.25-.66V30.9h-37.81v2.3l6.98.68 5.63 17.28-9.25 31.07h-.61l-16.73-48.36 8.41-.66V30.9h-37.01v2.3l6.99.69 24.08 65.54.12.33h11.84l.11-.36c3.16-10.57 6.47-21.26 9.68-31.59l3.83-12.34 14.81 44.29h11.88l19.51-63.23 12.87-3.39v-2.23h-27.06v2.21zM823.59 49c0-12.36-8.9-19.44-24.42-19.44-15.1 0-28.85 8.37-28.85 17.56 0 4.8 3.82 8.56 8.7 8.56 5.53 0 9.1-3.41 9.1-8.7 0-2.05-.82-3.95-2.31-5.35-1.26-1.19-3.55-2.54-7.5-2.43v-.6c3.43-3.07 9.79-5.63 14.01-5.63 8.5 0 12.13 3.67 12.13 12.26v16.7l-18.07 5.95c-9.27 3.31-18.74 7.98-18.74 17.53 0 8.84 6.78 15.01 16.49 15.01 7.86 0 12.62-2.38 19.64-7.39h.68v7.39h1.87l26.54-1.37v-2.32h-9.27zm-36.81 31.31c0-7.89 3.78-10.86 9.88-13.1l7.79-2.84v25.84c-2.55 1.23-5.07 1.83-7.7 1.83-6.06 0-9.97-4.61-9.97-11.73zM883.68 29.56c-7.43 0-14.09 6.36-19.27 18.41h-.51V29.56h-1.87l-25.33 1.37v2.32h8.06V96.1l-9.41.67v2.31h37.81v-2.31l-9.27-.67V55.95c3.44-9.02 6.68-14.89 9.63-17.46h.7c.62 6.73 5.57 9.81 10 9.81 4.45 0 9.23-3.02 9.23-9.64 0-5.91-5.03-9.1-9.77-9.1zM941.42 33.92V30.9h-17.33V14.78h-2.04l-16.81 16.14-9.29.69v2.31h9V83.8c0 11.03 5.28 16.62 15.68 16.62 6.92 0 14.78-1.82 20.52-4.76l.27-.14v-2.41l-.7.3c-3.87 1.66-6.13 2.24-8.67 2.24-5.17 0-7.96-2.19-7.96-13.74v-48h17.33z"/>
</svg>